# xmcd
#
# Track frame offsets:
#	150
#	12337
#	24877
#	36452
#	47817
#	60462
#	74840
#	84197
#	94350
#	106085
#	119062
#
# Disc length: 1770 seconds
#
# Revision: 1
# Processed by: cddbd v1.5.1PL0 Copyright (c) Steve Scherf et al.
# Submitted via: audiograbber 1.83.01
#
DISCID=9206e80b
DTITLE=DAVE and SUGAR - Greatest Hits
DYEAR=1994
DGENRE=Country
TTITLE0=It's a heartache
TTITLE1=Queen of the Silver Dollar
TTITLE2=Tear time
TTITLE3=Golden tears
TTITLE4=The door is always open
TTITLE5=Don't throw it all away
TTITLE6=Gotta quit lookin' at you baby
TTITLE7=Baby take your coat off
TTITLE8=I'm knee deep in loving you
TTITLE9=My world begins and ends with you
TTITLE10=Can't help but wonder
EXTD=
EXTT0=
EXTT1=
EXTT2=
EXTT3=
EXTT4=
EXTT5=
EXTT6=
EXTT7=
EXTT8=
EXTT9=
EXTT10=
PLAYORDER=
